***********************************************************************

                    Thurgood 2011 BRRip XviD - ZOMBiES
                                                            
************************************************************************

 
http://imdb.com/title/tt1844811/


Release Name : Thurgood 2011 BRRip XviD - ZOMBiES
Rating : 8.5/10
Genre : Drama
Stars : Laurence Fishburne
Director : Michael Stevens
Writers : George Stevens Jr.
Release Date : 24 Feb 2011


Plot:


Laurence Fishburne's Tony-nominated portrayal of Thurgood Marshall, the civil-rights lawyer who tried Brown v. Board of Education in 1954 and became the 
first black justice on the U.S. Supreme Court. Filmed at the Kennedy Center's Eisenhower Theater in Washington, D.C.


Details:


General Information

Rating : 8.5/10
Genre : Drama
Stars : Laurence Fishburne
Director : Michael Stevens
Writers : George Stevens Jr.
Release Date : 24 Feb 2011
Format : AVI
Format/Info : Audio Video Interleave
File size : 793 MiB
Duration : 1h 45mn
Overall bit rate : 1 050 Kbps
Writing application : MEncoder SVN-r33823-4.1.2
Writing library : MPlayer


Video Information

ID : 0
Format : xvid
Codec ID : xvid
Duration : 1h 45mn
Bit rate : 913 Kbps
Width : 626 pixels
Height : 352 pixels
Display aspect ratio : 16:9
Frame rate : 23.976 fps
Bits/(Pixel*Frame) : 0.173
Stream size : 689 MiB (87%)


Audio Information

ID : 1
Format : MPEG Audio
Format version : Version 1
Format profile : Layer 3
Mode : Joint stereo
Mode extension : MS Stereo
Codec ID : 55
Codec ID/Hint : MP3
Duration : 1h 45mn
Bit rate mode : Constant
Bit rate : 32.0 Kbps
Channel(s) : 2 channels
Sampling rate : 48.0 KHz
Compression mode : Lossy
Stream size : 94.0 MiB (12%)
Alignment : Aligned on interleaves
Interleave, duration : 24 ms (0.58 video frame)
Interleave, preload duration : 129 ms
Writing library : LAME3.98.4


Poster:

 
http://i.imgur.com/DQ8xc.jpg


Screens:

 
http://i.imgur.com/AXcPv.jpg

 
http://i.imgur.com/7a9Mw.jpg


ENJOY!